<svg version="1.1" xmlns="http://www.w3.org/2000/svg" width="512" height="512" viewBox="0 0 512 512"><rect width="512" height="512" fill="#1670e4"/><g transform="translate(67.333,66.683) scale(0.993377)"><path d="M0 0 C4.87679522 2.39239011 7.80955604 5.71568955 11 10 C12.5302087 14.59062609 12.9413765 19.37540138 11.28125 24.00390625 C9.19588499 27.89714818 6.66938751 30.58592927 3 33 C2.34 33 1.68 33 1 33 C1 42.24 1 51.48 1 61 C3.97902344 60.95359375 6.95804688 60.9071875 10.02734375 60.859375 C12.97320866 60.82801236 15.91905364 60.80382021 18.86499023 60.78027344 C20.88298118 60.76039017 22.90091635 60.73327375 24.91870117 60.69824219 C40.71946092 60.43116497 56.2530378 60.98225233 70.4375 68.8125 C71.42085327 69.33070312 71.42085327 69.33070312 72.42407227 69.859375 C95.55984812 82.30635972 110.12308334 101.2374292 117.87109375 126.06640625 C119.69439793 132.29875183 120.12894943 137.83623653 120.0625 144.3125 C120.05573242 145.56643555 120.05573242 145.56643555 120.04882812 146.84570312 C120.03710548 148.89716649 120.01917203 150.94859273 120 153 C118.88882813 153.556875 117.77765625 154.11375 116.6328125 154.6875 C108.04370006 159.06323145 100.15544999 163.44402622 93 170 C92.24589844 170.66257813 91.49179688 171.32515625 90.71484375 172.0078125 C79.23372449 182.68151171 73.5393829 195.29595972 69 210 C68.34 210 67.68 210 67 210 C65.58984375 208.49609375 65.58984375 208.49609375 63.9375 206.4375 C60.58886134 202.46010851 56.93569156 199.46969511 52.72265625 196.4453125 C52.15417969 195.96835938 51.58570313 195.49140625 51 195 C51 194.34 51 193.68 51 193 C51.54527344 192.78085938 52.09054688 192.56171875 52.65234375 192.3359375 C65.74494027 186.83033281 76.57650223 178.58958556 82.16015625 165.22265625 C87.38594595 151.26848663 87.96118144 136.50092061 81.96875 122.609375 C75.03759535 109.21538697 65.26909408 101.10349772 51.2890625 95.7265625 C45.67626983 93.94502763 40.37413484 93.84066169 34.53491211 93.82299805 C33.11432495 93.81314125 33.11432495 93.81314125 31.66503906 93.80308533 C28.5358064 93.78340273 25.40662169 93.77169916 22.27734375 93.76171875 C21.20468325 93.75764322 20.13202274 93.7535677 19.02685738 93.74936867 C13.34611327 93.72852656 7.66539317 93.71421838 1.98461914 93.70483398 C-3.86025747 93.69379062 -9.70475119 93.65940898 -15.54949284 93.61966228 C-20.06305104 93.59341651 -24.57651923 93.58513494 -29.09014702 93.58155251 C-31.24334732 93.57670492 -33.3965441 93.56514363 -35.54966927 93.54651451 C-53.28221245 93.40266058 -68.49792281 95.44754465 -82.0859375 107.92578125 C-92.80947626 119.5465957 -96.54279009 133.16560287 -96.27734375 148.56640625 C-95.74275685 160.95233248 -89.94360872 171.73734186 -82 181 C-69.67252095 192.03204905 -55.53078547 195.03337112 -39.47265625 195.31640625 C-38.48373886 195.33718735 -37.49482147 195.35796844 -36.47593689 195.37937927 C-33.33819062 195.44440554 -30.20036554 195.50354018 -27.0625 195.5625 C-24.92642437 195.60572991 -22.7903565 195.64934558 -20.65429688 195.69335938 C-15.43627957 195.80003838 -10.21818506 195.90188913 -5 196 C-4.92221313 196.56200104 -4.84442627 197.12400208 -4.76428223 197.70303345 C-4.40161212 200.29519305 -4.02899067 202.8858326 -3.65625 205.4765625 C-3.53411133 206.36029541 -3.41197266 207.24402832 -3.28613281 208.15454102 C-1.95505023 217.30783989 0.47758102 225.99085664 4.65625 234.2890625 C6 237 6 237 6 239 C4.89140625 239.350625 3.7828125 239.70125 2.640625 240.0625 C-2.92683148 242.16066502 -7.4510616 245.54163872 -12.25 249 C-14.27393332 250.42822657 -16.29871347 251.85525365 -18.32421875 253.28125 C-19.39591309 254.03921875 -20.46760742 254.7971875 -21.57177734 255.578125 C-27.0967337 259.48350787 -32.63338332 263.37077821 -38.20324707 267.21191406 C-39.4368817 268.06657315 -40.6668401 268.92656456 -41.89294434 269.79199219 C-43.61912613 271.00989168 -45.35664023 272.20969028 -47.09765625 273.40625 C-48.09289307 274.10041016 -49.08812988 274.79457031 -50.11352539 275.50976562 C-53.38999994 277.20134988 -55.36254272 277.43462206 -59 277 C-60.90625 275.3359375 -60.90625 275.3359375 -62 273 C-62.03125 270.5390625 -62.03125 270.5390625 -61.5 267.625 C-61.19449219 265.93697266 -61.19449219 265.93697266 -60.8828125 264.21484375 C-59.08740648 255.44094351 -57.05380857 246.71636357 -55 238 C-55.57282715 237.95174072 -56.1456543 237.90348145 -56.73583984 237.85375977 C-78.40602855 235.78039141 -97.94045664 222.82629271 -111.875 206.625 C-127.35487304 186.54144724 -133.37942199 163.05325955 -130.77734375 137.84277344 C-127.70547903 115.61501991 -115.53119313 93.36214453 -97.875 79.30859375 C-81.94938226 67.6001215 -64.93842481 60.78925334 -45.0078125 60.90234375 C-44.06187225 60.9037587 -43.11593201 60.90517365 -42.1413269 60.90663147 C-39.13585171 60.91220516 -36.13045247 60.9247528 -33.125 60.9375 C-31.08073025 60.9425184 -29.03645932 60.94708071 -26.9921875 60.95117188 C-21.99473924 60.9613128 -16.99745411 60.98089334 -12 61 C-12 51.76 -12 42.52 -12 33 C-13.32 32.34 -14.64 31.68 -16 31 C-19.6704082 27.67102512 -21.74796543 25.59471654 -22.23828125 20.546875 C-22.40092216 14.41788054 -22.28391475 9.65905983 -18 5 C-12.62306473 0.13102406 -7.13633745 -1.28334136 0 0 Z " fill="#ffffff" transform="translate(140,16)"/><path d="M0 0 C5.81548259 9.45510434 -0.48876038 31.18624507 -2.84765625 41.39453125 C-6.58078462 56.0229134 -13.63324663 69.7163263 -23.8515625 80.8671875 C-24.52574219 81.63289063 -25.19992187 82.39859375 -25.89453125 83.1875 C-38.93341875 97.20014777 -58.53918322 105.86440175 -77.609375 107.11328125 C-80.37098961 107.11654557 -83.09721954 107.05824019 -85.8515625 106.8671875 C-82.82617561 90.20739035 -65.59279055 72.56547281 -55.39599609 59.75488281 C-54.83219238 59.04299805 -54.26838867 58.33111328 -53.6875 57.59765625 C-52.93799072 56.66022583 -52.93799072 56.66022583 -52.17333984 55.70385742 C-50.82717316 53.8332974 -49.82300937 51.95334803 -48.8515625 49.8671875 C-64.2234006 62.30029185 -75.70125377 78.15672691 -86.29296875 94.671875 C-87.8515625 96.8671875 -87.8515625 96.8671875 -89.8515625 97.8671875 C-94.04103668 77.25767743 -90.38913181 54.88614668 -79.4140625 37.0546875 C-78.24590612 35.31239468 -77.06017345 33.58166502 -75.8515625 31.8671875 C-75.42617187 31.25488281 -75.00078125 30.64257812 -74.5625 30.01171875 C-59.56165793 10.63946565 -33.90981038 2.48272853 -10.6484375 -0.87109375 C-2.647509 -1.61978399 -2.647509 -1.61978399 0 0 Z " fill="#ffffff" transform="translate(306.8515625,171.1328125)"/><path d="M0 0 C17.48590938 1.21538832 36.25719173 6.4970109 48.234375 20.1171875 C55.39491259 29.70193841 59.39427366 39.09684755 59.33203125 51.171875 C59.32719727 52.83476562 59.32719727 52.83476562 59.32226562 54.53125 C59.30969727 56.24441406 59.30969727 56.24441406 59.296875 57.9921875 C59.29236328 59.1575 59.28785156 60.3228125 59.28320312 61.5234375 C59.27146281 64.38807395 59.2550407 67.25260383 59.234375 70.1171875 C43.210567 70.68856995 29.23176773 67.48468418 16.859375 56.7421875 C3.36971509 43.79125203 -3.55701621 26.41935256 -4.93359375 7.8515625 C-4.95241447 5.93937695 -4.86111961 4.02707979 -4.765625 2.1171875 C-2.765625 0.1171875 -2.765625 0.1171875 0 0 Z " fill="#ffffff" transform="translate(149.765625,207.8828125)"/><path d="M0 0 C1.03769531 -0.02578125 2.07539063 -0.0515625 3.14453125 -0.078125 C7.70118323 0.4132213 10.06752001 2.28152415 13.46875 5.22265625 C16.12771123 9.90605388 15.76710629 14.3969986 15.6875 19.6875 C15.70296875 20.71166016 15.7184375 21.73582031 15.734375 22.79101562 C15.70278713 28.89142251 15.34610248 32.66506597 11.1875 37.25 C6.29946701 40.07001904 1.73725213 41.23129213 -3.8125 40.25 C-7.30479856 38.95345802 -10.02171321 37.16887197 -12.4765625 34.31640625 C-14.54039637 29.57924371 -14.36534138 24.98762919 -14.375 19.875 C-14.41173828 18.85921875 -14.44847656 17.8434375 -14.48632812 16.796875 C-14.51665327 11.60790564 -14.31410284 8.15264638 -10.90234375 4.0859375 C-7.36403149 0.51688544 -5.01415424 0.07419217 0 0 Z " fill="#ffffff" transform="translate(175.8125,140.75)"/><path d="M0 0 C4.58163341 2.1702474 6.91418257 4.41833265 9 9 C9.4381883 12.50662709 9.41869546 15.97037751 9.375 19.5 C9.38660156 20.43714844 9.39820312 21.37429687 9.41015625 22.33984375 C9.38882346 27.35305054 9.31700722 30.96880463 6 35 C1.53352447 39.01982798 -1.79156753 40.36352952 -7.87109375 40.28515625 C-12.26376987 39.69677945 -15.66279823 37.4368387 -18.67431641 34.20092773 C-20.32051089 31.4678811 -20.38715226 29.71248836 -20.3984375 26.53515625 C-20.40230469 25.48779297 -20.40617187 24.44042969 -20.41015625 23.36132812 C-20.39855469 22.27271484 -20.38695313 21.18410156 -20.375 20.0625 C-20.38660156 18.97775391 -20.39820312 17.89300781 -20.41015625 16.77539062 C-20.40628906 15.72673828 -20.40242188 14.67808594 -20.3984375 13.59765625 C-20.39505371 12.64383057 -20.39166992 11.69000488 -20.38818359 10.70727539 C-19.77836848 6.45429438 -18.05957591 3.81657031 -14.68359375 1.21484375 C-9.91596523 -0.94342768 -5.12034519 -0.62443234 0 0 Z " fill="#ffffff" transform="translate(99,141)"/><path d="M0 0 C0.66 0 1.32 0 2 0 C2 0.66 2 1.32 2 2 C1.34 2 0.68 2 0 2 C0 1.34 0 0.68 0 0 Z " fill="#ffffff" transform="translate(143,74)"/></g><rect x="279.04" y="352.77" width="204.80" height="131.07" rx="22.53" ry="22.53" fill="#ffffff"/><g transform="translate(297.472,366.631) scale(0.807385)"><path d="M30 98V30h20l20 25 20-25h20v68H90V59L70 84 50 59v39zm125 0l-30-33h20V30h20v35h20z" fill="#1670e4"/></g></svg>